<svg xmlns="http://www.w3.org/2000/svg" viewBox="0 0 2860 1120" width="2860" height="1120"><style>.bg{fill:#1e2026;}.node-body{fill:#282c34;stroke:#505a6e;stroke-width:1;}.node-header{fill:#3c465a;}.header-text{fill:#e6e6f0;font:12px sans-serif;}.port-text{fill:#bebec8;font:10px sans-serif;}.input-dot{fill:#64c878;}.output-dot{fill:#c88c50;}.cable{fill:none;stroke:#78b4ff;stroke-width:1.5;}</style><rect class="bg" x="0" y="0" width="2860" height="1120"/><path class="cable" d="M 1320 805.5 C 1332 805.5, 1338 805.5, 1350 805.5"/><path class="cable" d="M 1510 805.5 C 1522 805.5, 1528 805.5, 1540 805.5"/><path class="cable" d="M 1510 823.5 C 1522 823.5, 1528 823.5, 1540 823.5"/><path class="cable" d="M 1700 805.5 C 1712 805.5, 1718 805.5, 1730 805.5"/><path class="cable" d="M 1700 805.5 C 1712 805.5, 1718 649.5, 1730 649.5"/><path class="cable" d="M 370 603.75 C 382 603.75, 388 919.75, 400 919.75"/><path class="cable" d="M 370 692.75 C 382 692.75, 388 937.75, 400 937.75"/><path class="cable" d="M 370 891 C 382 891, 388 955.75, 400 955.75"/><path class="cable" d="M 370 1007 C 382 1007, 388 973.75, 400 973.75"/><path class="cable" d="M 370 1087 C 382 1087, 388 991.75, 400 991.75"/><path class="cable" d="M 560 919.75 C 572 919.75, 578 1038, 590 1038"/><path class="cable" d="M 560 738.5 C 572 738.5, 578 472.75, 590 472.75"/><path class="cable" d="M 560 574 C 572 574, 578 490.75, 590 490.75"/><path class="cable" d="M 560 476 C 572 476, 578 508.75, 590 508.75"/><path class="cable" d="M 560 378 C 572 378, 578 526.75, 590 526.75"/><path class="cable" d="M 560 266.5 C 572 266.5, 578 544.75, 590 544.75"/><path class="cable" d="M 750 472.75 C 762 472.75, 768 574, 780 574"/><path class="cable" d="M 180 846.5 C 192 846.5, 198 514.75, 210 514.75"/><path class="cable" d="M 180 846.5 C 192 846.5, 198 603.75, 210 603.75"/><path class="cable" d="M 180 846.5 C 192 846.5, 198 692.75, 210 692.75"/><path class="cable" d="M 180 846.5 C 192 846.5, 198 891, 210 891"/><path class="cable" d="M 180 846.5 C 192 846.5, 198 1007, 210 1007"/><path class="cable" d="M 180 846.5 C 192 846.5, 198 1087, 210 1087"/><path class="cable" d="M 180 846.5 C 344 846.5, 426 1056, 590 1056"/><path class="cable" d="M 370 514.75 C 382 514.75, 388 738.5, 400 738.5"/><path class="cable" d="M 370 514.75 C 382 514.75, 388 574, 400 574"/><path class="cable" d="M 370 514.75 C 382 514.75, 388 476, 400 476"/><path class="cable" d="M 370 514.75 C 382 514.75, 388 378, 400 378"/><path class="cable" d="M 370 514.75 C 382 514.75, 388 266.5, 400 266.5"/><path class="cable" d="M 370 514.75 C 534 514.75, 616 592, 780 592"/><path class="cable" d="M 180 416.75 C 192 416.75, 198 416.75, 210 416.75"/><path class="cable" d="M 370 416.75 C 382 416.75, 388 756.5, 400 756.5"/><path class="cable" d="M 370 416.75 C 382 416.75, 388 592, 400 592"/><path class="cable" d="M 370 416.75 C 382 416.75, 388 494, 400 494"/><path class="cable" d="M 370 416.75 C 382 416.75, 388 396, 400 396"/><path class="cable" d="M 370 416.75 C 382 416.75, 388 284.5, 400 284.5"/><path class="cable" d="M 750 1038 C 914 1038, 996 703, 1160 703"/><path class="cable" d="M 940 574 C 952 574, 958 413.5, 970 413.5"/><path class="cable" d="M 1130 413.5 C 1142 413.5, 1148 721, 1160 721"/><path class="cable" d="M 180 864.5 C 192 864.5, 198 57, 210 57"/><path class="cable" d="M 180 882.5 C 192 882.5, 198 75, 210 75"/><path class="cable" d="M 370 57 C 762 57, 958 649.5, 1350 649.5"/><path class="cable" d="M 180 864.5 C 192 864.5, 198 155, 210 155"/><path class="cable" d="M 180 882.5 C 192 882.5, 198 173, 210 173"/><path class="cable" d="M 370 155 C 610 155, 730 431.5, 970 431.5"/><path class="cable" d="M 1320 703 C 1332 703, 1338 667.5, 1350 667.5"/><path class="cable" d="M 1510 649.5 C 1522 649.5, 1528 649.5, 1540 649.5"/><path class="cable" d="M 1700 649.5 C 1712 649.5, 1718 823.5, 1730 823.5"/><path class="cable" d="M 1700 649.5 C 1712 649.5, 1718 667.5, 1730 667.5"/><path class="cable" d="M 1890 805.5 C 1978 805.5, 2022 703, 2110 703"/><path class="cable" d="M 1890 649.5 C 1902 649.5, 1908 649.5, 1920 649.5"/><path class="cable" d="M 2080 649.5 C 2092 649.5, 2098 721, 2110 721"/><path class="cable" d="M 2270 703 C 2282 703, 2288 703, 2300 703"/><path class="cable" d="M 2270 721 C 2282 721, 2288 721, 2300 721"/><path class="cable" d="M 2460 703 C 2472 703, 2478 703, 2490 703"/><path class="cable" d="M 2460 721 C 2472 721, 2478 721, 2490 721"/><path class="cable" d="M 2650 703 C 2662 703, 2668 703, 2680 703"/><path class="cable" d="M 2650 721 C 2662 721, 2668 721, 2680 721"/><rect class="node-body" x="210" y="20" width="160" height="68" rx="4" ry="4"/><path class="node-header" d="M 210 24 Q 210 20 214 20 L 366 20 Q 370 20 370 24 L 370 44 Z L 210 44 Z"/><text class="header-text" x="218" y="36.8">adsr : PolyAdsr</text><circle class="input-dot" cx="216" cy="57" r="3"/><text class="port-text" x="223" y="60.5">trigger</text><circle class="input-dot" cx="216" cy="75" r="3"/><text class="port-text" x="223" y="78.5">gate</text><circle class="output-dot" cx="364" cy="57" r="3"/><text class="port-text" x="339" y="60.5">out</text><rect class="node-body" x="2680" y="666" width="160" height="68" rx="4" ry="4"/><path class="node-header" d="M 2680 670 Q 2680 666 2684 666 L 2836 666 Q 2840 666 2840 670 L 2840 690 Z L 2680 690 Z"/><text class="header-text" x="2688" y="682.8">audio : AudioOut</text><circle class="input-dot" cx="2686" cy="703" r="3"/><text class="port-text" x="2693" y="706.5">in_left</text><circle class="input-dot" cx="2686" cy="721" r="3"/><text class="port-text" x="2693" y="724.5">in_right</text><rect class="node-body" x="1540" y="612.5" width="160" height="50" rx="4" ry="4"/><path class="node-header" d="M 1540 616.5 Q 1540 612.5 1544 612.5 L 1696 612.5 Q 1700 612.5 1700 616.5 L 1700 636.5 Z L 1540 636.5 Z"/><text class="header-text" x="1548" y="629.3">collapse : PolyToMono</text><circle class="input-dot" cx="1546" cy="649.5" r="3"/><text class="port-text" x="1553" y="653">in</text><circle class="output-dot" cx="1694" cy="649.5" r="3"/><text class="port-text" x="1669" y="653">out</text><rect class="node-body" x="2110" y="666" width="160" height="68" rx="4" ry="4"/><path class="node-header" d="M 2110 670 Q 2110 666 2114 666 L 2266 666 Q 2270 666 2270 670 L 2270 690 Z L 2110 690 Z"/><text class="header-text" x="2118" y="682.8">delay : StereoDelay</text><circle class="input-dot" cx="2116" cy="703" r="3"/><text class="port-text" x="2123" y="706.5">in_left</text><circle class="input-dot" cx="2116" cy="721" r="3"/><text class="port-text" x="2123" y="724.5">in_right</text><circle class="output-dot" cx="2264" cy="703" r="3"/><text class="port-text" x="2209" y="706.5">out_left</text><circle class="output-dot" cx="2264" cy="721" r="3"/><text class="port-text" x="2203" y="724.5">out_right</text><rect class="node-body" x="210" y="379.75" width="160" height="50" rx="4" ry="4"/><path class="node-header" d="M 210 383.75 Q 210 379.75 214 379.75 L 366 379.75 Q 370 379.75 370 383.75 L 370 403.75 Z L 210 403.75 Z"/><text class="header-text" x="218" y="396.55">fan : MonoToPoly</text><circle class="input-dot" cx="216" cy="416.75" r="3"/><text class="port-text" x="223" y="420.25">in</text><circle class="output-dot" cx="364" cy="416.75" r="3"/><text class="port-text" x="339" y="420.25">out</text><rect class="node-body" x="970" y="376.5" width="160" height="68" rx="4" ry="4"/><path class="node-header" d="M 970 380.5 Q 970 376.5 974 376.5 L 1126 376.5 Q 1130 376.5 1130 380.5 L 1130 400.5 Z L 970 400.5 Z"/><text class="header-text" x="978" y="393.3">high_filt : PolySvf</text><circle class="input-dot" cx="976" cy="413.5" r="3"/><text class="port-text" x="983" y="417">in</text><circle class="input-dot" cx="976" cy="431.5" r="3"/><text class="port-text" x="983" y="435">fm</text><circle class="output-dot" cx="1124" cy="413.5" r="3"/><text class="port-text" x="1075" y="417">lowpass</text><rect class="node-body" x="210" y="118" width="160" height="68" rx="4" ry="4"/><path class="node-header" d="M 210 122 Q 210 118 214 118 L 366 118 Q 370 118 370 122 L 370 142 Z L 210 142 Z"/><text class="header-text" x="218" y="134.8">high_filt_adsr : PolyAdsr</text><circle class="input-dot" cx="216" cy="155" r="3"/><text class="port-text" x="223" y="158.5">trigger</text><circle class="input-dot" cx="216" cy="173" r="3"/><text class="port-text" x="223" y="176.5">gate</text><circle class="output-dot" cx="364" cy="155" r="3"/><text class="port-text" x="339" y="158.5">out</text><rect class="node-body" x="780" y="537" width="160" height="68" rx="4" ry="4"/><path class="node-header" d="M 780 541 Q 780 537 784 537 L 936 537 Q 940 537 940 541 L 940 561 Z L 780 561 Z"/><text class="header-text" x="788" y="553.8">highsaw/filt : PolyLowpass</text><circle class="input-dot" cx="786" cy="574" r="3"/><text class="port-text" x="793" y="577.5">in</text><circle class="input-dot" cx="786" cy="592" r="3"/><text class="port-text" x="793" y="595.5">voct</text><circle class="output-dot" cx="934" cy="574" r="3"/><text class="port-text" x="909" y="577.5">out</text><rect class="node-body" x="400" y="701.5" width="160" height="68" rx="4" ry="4"/><path class="node-header" d="M 400 705.5 Q 400 701.5 404 701.5 L 556 701.5 Q 560 701.5 560 705.5 L 560 725.5 Z L 400 725.5 Z"/><text class="header-text" x="408" y="718.3">highsaw/osc0 : PolyOsc</text><circle class="input-dot" cx="406" cy="738.5" r="3"/><text class="port-text" x="413" y="742">voct</text><circle class="input-dot" cx="406" cy="756.5" r="3"/><text class="port-text" x="413" y="760">fm</text><circle class="output-dot" cx="554" cy="738.5" r="3"/><text class="port-text" x="499" y="742">sawtooth</text><rect class="node-body" x="400" y="537" width="160" height="68" rx="4" ry="4"/><path class="node-header" d="M 400 541 Q 400 537 404 537 L 556 537 Q 560 537 560 541 L 560 561 Z L 400 561 Z"/><text class="header-text" x="408" y="553.8">highsaw/osc1 : PolyOsc</text><circle class="input-dot" cx="406" cy="574" r="3"/><text class="port-text" x="413" y="577.5">voct</text><circle class="input-dot" cx="406" cy="592" r="3"/><text class="port-text" x="413" y="595.5">fm</text><circle class="output-dot" cx="554" cy="574" r="3"/><text class="port-text" x="499" y="577.5">sawtooth</text><rect class="node-body" x="400" y="439" width="160" height="68" rx="4" ry="4"/><path class="node-header" d="M 400 443 Q 400 439 404 439 L 556 439 Q 560 439 560 443 L 560 463 Z L 400 463 Z"/><text class="header-text" x="408" y="455.8">highsaw/osc2 : PolyOsc</text><circle class="input-dot" cx="406" cy="476" r="3"/><text class="port-text" x="413" y="479.5">voct</text><circle class="input-dot" cx="406" cy="494" r="3"/><text class="port-text" x="413" y="497.5">fm</text><circle class="output-dot" cx="554" cy="476" r="3"/><text class="port-text" x="499" y="479.5">sawtooth</text><rect class="node-body" x="400" y="341" width="160" height="68" rx="4" ry="4"/><path class="node-header" d="M 400 345 Q 400 341 404 341 L 556 341 Q 560 341 560 345 L 560 365 Z L 400 365 Z"/><text class="header-text" x="408" y="357.8">highsaw/osc3 : PolyOsc</text><circle class="input-dot" cx="406" cy="378" r="3"/><text class="port-text" x="413" y="381.5">voct</text><circle class="input-dot" cx="406" cy="396" r="3"/><text class="port-text" x="413" y="399.5">fm</text><circle class="output-dot" cx="554" cy="378" r="3"/><text class="port-text" x="499" y="381.5">sawtooth</text><rect class="node-body" x="400" y="229.5" width="160" height="68" rx="4" ry="4"/><path class="node-header" d="M 400 233.5 Q 400 229.5 404 229.5 L 556 229.5 Q 560 229.5 560 233.5 L 560 253.5 Z L 400 253.5 Z"/><text class="header-text" x="408" y="246.3">highsaw/osc4 : PolyOsc</text><circle class="input-dot" cx="406" cy="266.5" r="3"/><text class="port-text" x="413" y="270">voct</text><circle class="input-dot" cx="406" cy="284.5" r="3"/><text class="port-text" x="413" y="288">fm</text><circle class="output-dot" cx="554" cy="266.5" r="3"/><text class="port-text" x="499" y="270">sawtooth</text><rect class="node-body" x="590" y="435.75" width="160" height="122" rx="4" ry="4"/><path class="node-header" d="M 590 439.75 Q 590 435.75 594 435.75 L 746 435.75 Q 750 435.75 750 439.75 L 750 459.75 Z L 590 459.75 Z"/><text class="header-text" x="598" y="452.55">highsaw/sum : PolySum</text><circle class="input-dot" cx="596" cy="472.75" r="3"/><text class="port-text" x="603" y="476.25">in</text><circle class="input-dot" cx="596" cy="490.75" r="3"/><text class="port-text" x="603" y="494.25">in/1</text><circle class="input-dot" cx="596" cy="508.75" r="3"/><text class="port-text" x="603" y="512.25">in/2</text><circle class="input-dot" cx="596" cy="526.75" r="3"/><text class="port-text" x="603" y="530.25">in/3</text><circle class="input-dot" cx="596" cy="544.75" r="3"/><text class="port-text" x="603" y="548.25">in/4</text><circle class="output-dot" cx="744" cy="472.75" r="3"/><text class="port-text" x="719" y="476.25">out</text><rect class="node-body" x="20" y="379.75" width="160" height="50" rx="4" ry="4"/><path class="node-header" d="M 20 383.75 Q 20 379.75 24 379.75 L 176 379.75 Q 180 379.75 180 383.75 L 180 403.75 Z L 20 403.75 Z"/><text class="header-text" x="28" y="396.55">lfo : Lfo</text><circle class="output-dot" cx="174" cy="416.75" r="3"/><text class="port-text" x="143" y="420.25">sine</text><rect class="node-body" x="2490" y="666" width="160" height="68" rx="4" ry="4"/><path class="node-header" d="M 2490 670 Q 2490 666 2494 666 L 2646 666 Q 2650 666 2650 670 L 2650 690 Z L 2490 690 Z"/><text class="header-text" x="2498" y="682.8">lim : StereoLimiter</text><circle class="input-dot" cx="2496" cy="703" r="3"/><text class="port-text" x="2503" y="706.5">in_left</text><circle class="input-dot" cx="2496" cy="721" r="3"/><text class="port-text" x="2503" y="724.5">in_right</text><circle class="output-dot" cx="2644" cy="703" r="3"/><text class="port-text" x="2589" y="706.5">out_left</text><circle class="output-dot" cx="2644" cy="721" r="3"/><text class="port-text" x="2583" y="724.5">out_right</text><rect class="node-body" x="590" y="1001" width="160" height="68" rx="4" ry="4"/><path class="node-header" d="M 590 1005 Q 590 1001 594 1001 L 746 1001 Q 750 1001 750 1005 L 750 1025 Z L 590 1025 Z"/><text class="header-text" x="598" y="1017.8">lowsaw/filt : PolyLowpass</text><circle class="input-dot" cx="596" cy="1038" r="3"/><text class="port-text" x="603" y="1041.5">in</text><circle class="input-dot" cx="596" cy="1056" r="3"/><text class="port-text" x="603" y="1059.5">voct</text><circle class="output-dot" cx="744" cy="1038" r="3"/><text class="port-text" x="719" y="1041.5">out</text><rect class="node-body" x="210" y="566.75" width="160" height="50" rx="4" ry="4"/><path class="node-header" d="M 210 570.75 Q 210 566.75 214 566.75 L 366 566.75 Q 370 566.75 370 570.75 L 370 590.75 Z L 210 590.75 Z"/><text class="header-text" x="218" y="583.55">lowsaw/osc0 : PolyOsc</text><circle class="input-dot" cx="216" cy="603.75" r="3"/><text class="port-text" x="223" y="607.25">voct</text><circle class="output-dot" cx="364" cy="603.75" r="3"/><text class="port-text" x="321" y="607.25">square</text><rect class="node-body" x="210" y="655.75" width="160" height="50" rx="4" ry="4"/><path class="node-header" d="M 210 659.75 Q 210 655.75 214 655.75 L 366 655.75 Q 370 655.75 370 659.75 L 370 679.75 Z L 210 679.75 Z"/><text class="header-text" x="218" y="672.55">lowsaw/osc1 : PolyOsc</text><circle class="input-dot" cx="216" cy="692.75" r="3"/><text class="port-text" x="223" y="696.25">voct</text><circle class="output-dot" cx="364" cy="692.75" r="3"/><text class="port-text" x="321" y="696.25">square</text><rect class="node-body" x="210" y="854" width="160" height="50" rx="4" ry="4"/><path class="node-header" d="M 210 858 Q 210 854 214 854 L 366 854 Q 370 854 370 858 L 370 878 Z L 210 878 Z"/><text class="header-text" x="218" y="870.8">lowsaw/osc2 : PolyOsc</text><circle class="input-dot" cx="216" cy="891" r="3"/><text class="port-text" x="223" y="894.5">voct</text><circle class="output-dot" cx="364" cy="891" r="3"/><text class="port-text" x="321" y="894.5">square</text><rect class="node-body" x="210" y="970" width="160" height="50" rx="4" ry="4"/><path class="node-header" d="M 210 974 Q 210 970 214 970 L 366 970 Q 370 970 370 974 L 370 994 Z L 210 994 Z"/><text class="header-text" x="218" y="986.8">lowsaw/osc3 : PolyOsc</text><circle class="input-dot" cx="216" cy="1007" r="3"/><text class="port-text" x="223" y="1010.5">voct</text><circle class="output-dot" cx="364" cy="1007" r="3"/><text class="port-text" x="321" y="1010.5">square</text><rect class="node-body" x="210" y="1050" width="160" height="50" rx="4" ry="4"/><path class="node-header" d="M 210 1054 Q 210 1050 214 1050 L 366 1050 Q 370 1050 370 1054 L 370 1074 Z L 210 1074 Z"/><text class="header-text" x="218" y="1066.8">lowsaw/osc4 : PolyOsc</text><circle class="input-dot" cx="216" cy="1087" r="3"/><text class="port-text" x="223" y="1090.5">voct</text><circle class="output-dot" cx="364" cy="1087" r="3"/><text class="port-text" x="321" y="1090.5">square</text><rect class="node-body" x="400" y="882.75" width="160" height="122" rx="4" ry="4"/><path class="node-header" d="M 400 886.75 Q 400 882.75 404 882.75 L 556 882.75 Q 560 882.75 560 886.75 L 560 906.75 Z L 400 906.75 Z"/><text class="header-text" x="408" y="899.55">lowsaw/sum : PolySum</text><circle class="input-dot" cx="406" cy="919.75" r="3"/><text class="port-text" x="413" y="923.25">in</text><circle class="input-dot" cx="406" cy="937.75" r="3"/><text class="port-text" x="413" y="941.25">in/1</text><circle class="input-dot" cx="406" cy="955.75" r="3"/><text class="port-text" x="413" y="959.25">in/2</text><circle class="input-dot" cx="406" cy="973.75" r="3"/><text class="port-text" x="413" y="977.25">in/3</text><circle class="input-dot" cx="406" cy="991.75" r="3"/><text class="port-text" x="413" y="995.25">in/4</text><circle class="output-dot" cx="554" cy="919.75" r="3"/><text class="port-text" x="529" y="923.25">out</text><rect class="node-body" x="20" y="809.5" width="160" height="86" rx="4" ry="4"/><path class="node-header" d="M 20 813.5 Q 20 809.5 24 809.5 L 176 809.5 Q 180 809.5 180 813.5 L 180 833.5 Z L 20 833.5 Z"/><text class="header-text" x="28" y="826.3">midi : PolyMidiIn</text><circle class="output-dot" cx="174" cy="846.5" r="3"/><text class="port-text" x="143" y="850">voct</text><circle class="output-dot" cx="174" cy="864.5" r="3"/><text class="port-text" x="125" y="868">trigger</text><circle class="output-dot" cx="174" cy="882.5" r="3"/><text class="port-text" x="143" y="886">gate</text><rect class="node-body" x="1160" y="666" width="160" height="68" rx="4" ry="4"/><path class="node-header" d="M 1160 670 Q 1160 666 1164 666 L 1316 666 Q 1320 666 1320 670 L 1320 690 Z L 1160 690 Z"/><text class="header-text" x="1168" y="682.8">mix : PolyMixer</text><circle class="input-dot" cx="1166" cy="703" r="3"/><text class="port-text" x="1173" y="706.5">in</text><circle class="input-dot" cx="1166" cy="721" r="3"/><text class="port-text" x="1173" y="724.5">in/1</text><circle class="output-dot" cx="1314" cy="703" r="3"/><text class="port-text" x="1289" y="706.5">out</text><rect class="node-body" x="1920" y="612.5" width="160" height="50" rx="4" ry="4"/><path class="node-header" d="M 1920 616.5 Q 1920 612.5 1924 612.5 L 2076 612.5 Q 2080 612.5 2080 616.5 L 2080 636.5 Z L 1920 636.5 Z"/><text class="header-text" x="1928" y="629.3">short_delay : Delay</text><circle class="input-dot" cx="1926" cy="649.5" r="3"/><text class="port-text" x="1933" y="653">in</text><circle class="output-dot" cx="2074" cy="649.5" r="3"/><text class="port-text" x="2049" y="653">out</text><rect class="node-body" x="1540" y="768.5" width="160" height="68" rx="4" ry="4"/><path class="node-header" d="M 1540 772.5 Q 1540 768.5 1544 768.5 L 1696 768.5 Q 1700 768.5 1700 772.5 L 1700 792.5 Z L 1540 792.5 Z"/><text class="header-text" x="1548" y="785.3">stutter/adsr : Adsr</text><circle class="input-dot" cx="1546" cy="805.5" r="3"/><text class="port-text" x="1553" y="809">trigger</text><circle class="input-dot" cx="1546" cy="823.5" r="3"/><text class="port-text" x="1553" y="827">gate</text><circle class="output-dot" cx="1694" cy="805.5" r="3"/><text class="port-text" x="1669" y="809">out</text><rect class="node-body" x="1730" y="768.5" width="160" height="68" rx="4" ry="4"/><path class="node-header" d="M 1730 772.5 Q 1730 768.5 1734 768.5 L 1886 768.5 Q 1890 768.5 1890 772.5 L 1890 792.5 Z L 1730 792.5 Z"/><text class="header-text" x="1738" y="785.3">stutter/left_vca : Vca</text><circle class="input-dot" cx="1736" cy="805.5" r="3"/><text class="port-text" x="1743" y="809">cv</text><circle class="input-dot" cx="1736" cy="823.5" r="3"/><text class="port-text" x="1743" y="827">in</text><circle class="output-dot" cx="1884" cy="805.5" r="3"/><text class="port-text" x="1859" y="809">out</text><rect class="node-body" x="1350" y="768.5" width="160" height="68" rx="4" ry="4"/><path class="node-header" d="M 1350 772.5 Q 1350 768.5 1354 768.5 L 1506 768.5 Q 1510 768.5 1510 772.5 L 1510 792.5 Z L 1350 792.5 Z"/><text class="header-text" x="1358" y="785.3">stutter/player : PatternPlayer</text><circle class="input-dot" cx="1356" cy="805.5" r="3"/><text class="port-text" x="1363" y="809">clock</text><circle class="output-dot" cx="1504" cy="805.5" r="3"/><text class="port-text" x="1455" y="809">trigger</text><circle class="output-dot" cx="1504" cy="823.5" r="3"/><text class="port-text" x="1473" y="827">gate</text><rect class="node-body" x="1730" y="612.5" width="160" height="68" rx="4" ry="4"/><path class="node-header" d="M 1730 616.5 Q 1730 612.5 1734 612.5 L 1886 612.5 Q 1890 612.5 1890 616.5 L 1890 636.5 Z L 1730 636.5 Z"/><text class="header-text" x="1738" y="629.3">stutter/right_vca : Vca</text><circle class="input-dot" cx="1736" cy="649.5" r="3"/><text class="port-text" x="1743" y="653">cv</text><circle class="input-dot" cx="1736" cy="667.5" r="3"/><text class="port-text" x="1743" y="671">in</text><circle class="output-dot" cx="1884" cy="649.5" r="3"/><text class="port-text" x="1859" y="653">out</text><rect class="node-body" x="1160" y="768.5" width="160" height="50" rx="4" ry="4"/><path class="node-header" d="M 1160 772.5 Q 1160 768.5 1164 768.5 L 1316 768.5 Q 1320 768.5 1320 772.5 L 1320 792.5 Z L 1160 792.5 Z"/><text class="header-text" x="1168" y="785.3">stutter/seq : MasterSequencer</text><circle class="output-dot" cx="1314" cy="805.5" r="3"/><text class="port-text" x="1277" y="809">clock</text><rect class="node-body" x="210" y="477.75" width="160" height="50" rx="4" ry="4"/><path class="node-header" d="M 210 481.75 Q 210 477.75 214 477.75 L 366 477.75 Q 370 477.75 370 481.75 L 370 501.75 Z L 210 501.75 Z"/><text class="header-text" x="218" y="494.55">tuner : PolyTuner</text><circle class="input-dot" cx="216" cy="514.75" r="3"/><text class="port-text" x="223" y="518.25">in</text><circle class="output-dot" cx="364" cy="514.75" r="3"/><text class="port-text" x="339" y="518.25">out</text><rect class="node-body" x="1350" y="612.5" width="160" height="68" rx="4" ry="4"/><path class="node-header" d="M 1350 616.5 Q 1350 612.5 1354 612.5 L 1506 612.5 Q 1510 612.5 1510 616.5 L 1510 636.5 Z L 1350 636.5 Z"/><text class="header-text" x="1358" y="629.3">vca : PolyVca</text><circle class="input-dot" cx="1356" cy="649.5" r="3"/><text class="port-text" x="1363" y="653">cv</text><circle class="input-dot" cx="1356" cy="667.5" r="3"/><text class="port-text" x="1363" y="671">in</text><circle class="output-dot" cx="1504" cy="649.5" r="3"/><text class="port-text" x="1479" y="653">out</text><rect class="node-body" x="2300" y="666" width="160" height="68" rx="4" ry="4"/><path class="node-header" d="M 2300 670 Q 2300 666 2304 666 L 2456 666 Q 2460 666 2460 670 L 2460 690 Z L 2300 690 Z"/><text class="header-text" x="2308" y="682.8">verb : StereoConvReverb</text><circle class="input-dot" cx="2306" cy="703" r="3"/><text class="port-text" x="2313" y="706.5">in_left</text><circle class="input-dot" cx="2306" cy="721" r="3"/><text class="port-text" x="2313" y="724.5">in_right</text><circle class="output-dot" cx="2454" cy="703" r="3"/><text class="port-text" x="2399" y="706.5">out_left</text><circle class="output-dot" cx="2454" cy="721" r="3"/><text class="port-text" x="2393" y="724.5">out_right</text></svg>
